<?xml version="1.0" encoding="utf-8"?>
<svg viewBox="0 0 500 500" xmlns="http://www.w3.org/2000/svg">
  <g transform="matrix(0.045101, 0, 0, -0.045101, 78.471931, 501.8396)" fill="#eeebf7" stroke="none" style="">
    <path d="M3710 10835 c-379 -48 -620 -190 -819 -483 -135 -200 -230 -523 -230 -787 -1 -148 36 -419 75 -553 11 -39 12 -62 5 -90 -5 -20 -15 -66 -22 -102 -16 -86 -45 -141 -146 -279 -47 -64 -115 -161 -152 -217 l-66 -101 -100 -5 c-101 -5 -178 -26 -320 -85 -230 -96 -497 -345 -712 -663 -236 -350 -465 -955 -561 -1485 -128 -704 -140 -1404 -36 -2120 8 -55 19 -134 25 -175 52 -353 145 -750 251 -1065 195 -580 607 -1462 786 -1683 53 -66 151 -134 182 -127 46 11 70 35 101 98 66 134 91 227 120 436 10 79 23 160 28 180 5 20 12 59 16 86 10 75 61 281 105 425 37 120 95 277 225 610 120 310 253 692 275 797 l14 62 23 -34 c13 -19 23 -36 23 -39 0 -13 136 -230 276 -441 179 -271 207 -320 274 -485 125 -304 254 -562 307 -611 15 -15 45 -38 66 -52 32 -22 42 -24 68 -15 60 21 113 107 319 518 73 146 178 348 235 450 56 102 119 219 140 260 l38 75 13 -65 c31 -166 190 -636 404 -1195 149 -390 158 -414 276 -755 110 -316 168 -431 247 -488 108 -77 158 -30 407 383 57 94 124 208 150 255 26 47 58 103 70 125 41 72 267 527 329 663 71 155 169 401 235 587 170 486 253 904 287 1440 11 173 8 699 -5 880 -7 94 -44 407 -56 480 -5 28 -11 66 -14 85 -3 19 -17 93 -31 164 -123 627 -364 1186 -714 1656 -317 428 -555 665 -932 933 l-66 46 -94 218 c-103 239 -95 208 -123 533 -11 125 -13 194 -6 240 12 84 13 308 0 385 -5 33 -12 80 -15 105 -35 256 -166 552 -320 719 -122 133 -403 282 -575 305 -102 14 -181 14 -280 1z m296 -359 c137 -44 275 -149 348 -265 51 -80 111 -275 147 -476 8 -46 13 -198 15 -445 2 -352 3 -380 24 -455 12 -44 28 -111 36 -150 15 -77 22 -96 70 -200 149 -325 230 -523 309 -759 49 -144 124 -423 139 -516 3 -19 8 -51 11 -70 3 -19 10 -57 15 -85 55 -301 55 -920 0 -1305 -6 -36 -12 -86 -15 -112 -24 -221 -103 -613 -166 -823 -71 -234 -205 -585 -349 -910 -80 -182 -294 -601 -452 -885 -69 -124 -172 -314 -229 -422 -57 -109 -106 -198 -109 -198 -3 0 -32 75 -65 167 -93 258 -209 485 -400 778 -178 273 -383 638 -555 990 -223 456 -416 1008 -504 1445 -26 129 -52 294 -61 390 -3 30 -10 98 -15 150 -13 123 -12 305 0 450 6 63 12 142 15 175 19 236 85 501 193 770 61 154 96 224 209 413 109 182 179 318 213 411 46 125 40 274 -14 379 -8 16 -13 32 -11 34 3 3 5 38 6 79 1 86 34 458 48 539 56 325 207 598 425 769 166 129 302 173 521 167 96 -3 136 -9 201 -30z m-1730 -2388 c-136 -255 -269 -615 -325 -879 -28 -131 -29 -137 -60 -379 -48 -387 -38 -745 33 -1155 48 -272 152 -652 261 -955 110 -304 168 -436 337 -767 l108 -212 -35 -7 c-26 -5 -49 -21 -85 -62 -67 -75 -108 -157 -174 -352 -94 -274 -109 -315 -116 -323 -4 -4 -12 32 -19 80 -33 228 -82 492 -132 703 -68 287 -97 390 -112 390 -5 0 -6 -8 -3 -17 3 -10 10 -51 16 -92 6 -40 12 -76 14 -80 3 -4 11 -45 20 -91 8 -47 28 -150 45 -230 16 -80 46 -230 66 -335 20 -104 45 -234 56 -289 10 -54 19 -106 19 -115 0 -10 -33 -100 -73 -202 -41 -101 -99 -256 -131 -344 -31 -88 -61 -169 -65 -180 -5 -11 -11 122 -14 295 -3 173 -10 380 -16 460 -27 350 -42 518 -66 735 -8 72 -17 155 -21 185 -3 30 -16 87 -28 125 l-22 70 -18 -93 c-13 -73 -16 -123 -11 -230 3 -75 10 -245 15 -377 6 -132 15 -307 20 -390 5 -82 14 -233 20 -335 6 -102 15 -246 20 -320 15 -202 12 -515 -4 -575 l-13 -50 -12 45 c-7 25 -23 86 -37 135 -13 50 -31 115 -39 145 -19 70 -55 226 -62 265 -2 17 -13 73 -23 125 -18 92 -27 145 -49 295 -17 111 -19 133 -31 250 -6 61 -13 117 -15 125 -5 16 -23 192 -31 305 -3 39 -9 97 -14 130 -12 94 -12 -248 0 -402 6 -71 15 -189 21 -263 25 -332 82 -683 156 -969 13 -51 22 -95 20 -97 -5 -5 -88 170 -177 371 -271 610 -424 1108 -529 1710 -5 33 -17 98 -25 145 -71 402 -106 910 -87 1290 30 612 91 966 246 1435 109 329 209 540 364 765 142 206 340 414 481 505 98 64 293 156 388 184 1 1 -22 -45 -52 -101z m3200 -303 c192 -232 450 -636 592 -925 158 -323 296 -736 361 -1080 6 -30 17 -89 25 -130 8 -41 19 -109 25 -150 6 -41 15 -106 21 -145 11 -80 16 -130 30 -305 5 -69 15 -186 21 -260 20 -240 1 -818 -36 -1105 -33 -257 -49 -345 -102 -565 -120 -503 -382 -1157 -716 -1785 -55 -104 -109 -203 -119 -220 l-18 -30 6 70 c5 74 29 268 44 370 5 33 14 96 20 140 7 44 18 114 25 155 12 65 20 117 30 195 4 30 43 300 56 382 6 40 13 94 15 120 3 26 12 98 20 158 33 259 70 682 60 692 -3 3 -8 -12 -11 -33 -3 -22 -17 -95 -31 -164 -23 -121 -32 -177 -75 -470 -11 -74 -21 -142 -24 -150 -2 -8 -6 -33 -9 -56 -5 -46 -11 -83 -31 -204 -8 -47 -24 -143 -35 -215 -11 -71 -27 -168 -35 -215 -34 -204 -53 -386 -61 -595 l-7 -179 -63 214 c-74 249 -72 243 -198 631 l-96 296 39 154 c42 161 78 290 180 649 34 118 70 247 81 285 35 127 107 438 125 540 9 55 21 122 26 149 8 42 6 69 -4 55 -6 -9 -128 -390 -158 -494 -38 -132 -85 -289 -172 -570 -81 -259 -121 -404 -143 -518 -9 -48 -20 -85 -23 -82 -9 10 -181 597 -181 620 0 8 36 121 79 252 80 240 136 376 276 668 81 168 334 729 353 780 6 17 22 61 36 99 15 38 25 71 23 73 -7 7 -158 -255 -205 -357 -27 -58 -96 -199 -152 -315 -188 -386 -245 -515 -296 -675 -41 -123 -114 -434 -114 -477 0 -42 -15 -23 -37 47 -12 38 -48 130 -80 206 -44 102 -64 138 -80 145 -13 5 -23 12 -23 17 0 5 36 87 81 183 288 620 424 978 522 1379 31 126 63 270 72 325 14 81 16 91 25 140 9 50 45 291 55 375 9 68 23 253 36 468 11 181 7 346 -16 617 -10 114 -26 248 -30 255 -2 3 -11 50 -20 105 -29 169 -100 432 -175 649 -11 33 -20 61 -20 64 0 7 184 -190 236 -253z"/>
    <path d="M4152 9794 c-12 -8 -22 -26 -22 -39 0 -20 -8 -26 -42 -36 -56 -16 -74 -32 -93 -83 -30 -83 -22 -289 17 -378 23 -53 68 -98 100 -98 44 0 128 136 158 255 30 121 -2 332 -58 375 -30 24 -32 24 -60 4z"/>
    <path d="M3095 9765 c-50 -18 -61 -33 -88 -120 -16 -52 -21 -97 -22 -175 0 -101 1 -107 33 -161 43 -75 105 -139 135 -139 33 0 61 33 101 121 47 101 76 211 76 284 -1 76 -36 163 -77 187 -34 21 -103 23 -158 3z"/>
    <path d="M3560 9233 c-14 -2 -53 -13 -88 -25 -125 -40 -222 -174 -261 -360 -27 -130 -22 -207 16 -283 17 -34 35 -92 42 -135 21 -133 84 -314 173 -500 39 -81 83 -130 118 -130 29 0 78 46 104 97 36 72 186 455 214 548 55 180 66 331 38 490 -30 163 -68 225 -167 275 -57 30 -112 36 -189 23z m97 -285 c36 -48 55 -253 36 -395 -8 -57 -32 -151 -64 -245 -76 -226 -67 -220 -121 -97 -25 57 -62 152 -82 211 -34 99 -36 110 -25 153 6 25 9 68 6 94 -3 27 -3 74 0 105 5 50 12 64 52 108 25 28 59 57 76 64 38 17 110 18 122 2z"/>
    <path d="M3975 7389 c-119 -23 -190 -41 -241 -64 -67 -29 -154 -115 -190 -187 l-26 -51 -28 50 c-40 69 -94 119 -175 160 -136 70 -211 77 -373 38 -118 -29 -148 -42 -204 -93 -155 -140 -174 -381 -51 -655 77 -173 144 -279 298 -467 103 -127 201 -270 271 -395 78 -138 165 -276 191 -302 36 -36 107 -83 125 -83 59 0 101 47 177 195 49 97 125 206 215 310 231 266 389 559 448 835 39 180 24 404 -33 507 -46 82 -78 112 -172 158 -100 48 -154 59 -232 44z m-737 -379 c88 -38 151 -128 218 -310 37 -99 84 -180 104 -180 11 0 30 48 30 76 0 21 2 23 19 12 32 -20 67 4 95 64 35 76 66 156 66 174 0 25 42 73 90 104 63 40 131 54 195 38 l50 -13 7 -55 c11 -77 0 -190 -27 -290 -47 -178 -128 -328 -330 -615 -51 -73 -115 -170 -141 -214 l-47 -81 -84 151 c-105 190 -161 273 -287 427 -208 253 -294 406 -318 558 l-12 77 46 42 c25 23 61 47 80 53 53 18 185 8 246 -18z"/>
    <path d="M3027 4253 c-27 -26 11 -137 86 -254 101 -158 287 -406 287 -383 0 6 -11 37 -24 70 -23 60 -56 118 -196 348 -40 66 -84 143 -97 173 -23 49 -40 63 -56 46z"/>
    <path d="M4127 4234 c-2 -14 -3 -139 -1 -278 3 -268 18 -404 41 -384 7 6 13 7 13 4 0 -31 140 192 245 389 56 107 70 145 50 145 -26 0 -93 -93 -161 -225 -38 -73 -70 -132 -72 -130 -1 1 20 69 47 151 67 200 95 324 74 324 -23 0 -162 -406 -186 -540 -2 -14 -5 36 -5 110 -2 160 -23 460 -33 460 -4 0 -9 -12 -12 -26z m56 -624 c-3 -12 -8 -19 -11 -16 -5 6 5 36 12 36 2 0 2 -9 -1 -20z"/>
    <path d="M3190 4230 c0 -19 210 -453 242 -500 l33 -48 3 50 c3 55 -26 216 -64 353 -14 50 -28 103 -31 118 -5 27 -27 46 -39 34 -5 -5 8 -91 32 -214 8 -40 14 -76 14 -80 0 -4 -23 37 -51 92 -29 55 -60 112 -70 126 -10 15 -23 38 -29 53 -9 24 -40 37 -40 16z"/>
    <path d="M1453 3680 c0 -36 2 -50 4 -32 2 17 2 47 0 65 -2 17 -4 3 -4 -33z"/>
  </g>
</svg>